<mxfile host="app.diagrams.net" modified="2021-06-09T02:47:21.113Z" agent="5.0 (Windows NT 10.0; Win64; x64) AppleWebKit/537.36 (KHTML, like Gecko) Chrome/91.0.4472.77 Safari/537.36 Edg/91.0.864.41" etag="Fgnk4O5GFSoGIFANs-Qz" version="14.7.6" type="github">
  <diagram id="xbSUnDKYCWi-sVSFAzKx" name="第 1 页">
    <mxGraphModel dx="1422" dy="793" grid="1" gridSize="10" guides="1" tooltips="1" connect="1" arrows="1" fold="1" page="1" pageScale="1" pageWidth="827" pageHeight="1169" math="0" shadow="0">
      <root>
        <mxCell id="0" />
        <mxCell id="1" parent="0" />
        <mxCell id="uLhDo0Ny1792h5dLZ_3C-3" value="" style="edgeStyle=orthogonalEdgeStyle;rounded=0;orthogonalLoop=1;jettySize=auto;html=1;" edge="1" parent="1" source="uLhDo0Ny1792h5dLZ_3C-1" target="uLhDo0Ny1792h5dLZ_3C-2">
          <mxGeometry relative="1" as="geometry" />
        </mxCell>
        <mxCell id="uLhDo0Ny1792h5dLZ_3C-4" value="否" style="edgeLabel;html=1;align=center;verticalAlign=middle;resizable=0;points=[];" vertex="1" connectable="0" parent="uLhDo0Ny1792h5dLZ_3C-3">
          <mxGeometry x="-0.1529" y="2" relative="1" as="geometry">
            <mxPoint as="offset" />
          </mxGeometry>
        </mxCell>
        <mxCell id="uLhDo0Ny1792h5dLZ_3C-6" value="" style="edgeStyle=orthogonalEdgeStyle;rounded=0;orthogonalLoop=1;jettySize=auto;html=1;" edge="1" parent="1" source="uLhDo0Ny1792h5dLZ_3C-1" target="uLhDo0Ny1792h5dLZ_3C-5">
          <mxGeometry relative="1" as="geometry" />
        </mxCell>
        <mxCell id="uLhDo0Ny1792h5dLZ_3C-7" value="是" style="edgeLabel;html=1;align=center;verticalAlign=middle;resizable=0;points=[];" vertex="1" connectable="0" parent="uLhDo0Ny1792h5dLZ_3C-6">
          <mxGeometry x="-0.25" y="5" relative="1" as="geometry">
            <mxPoint as="offset" />
          </mxGeometry>
        </mxCell>
        <mxCell id="uLhDo0Ny1792h5dLZ_3C-1" value="学生是否四城区户籍" style="rhombus;whiteSpace=wrap;html=1;fillColor=#dae8fc;strokeColor=#6c8ebf;" vertex="1" parent="1">
          <mxGeometry x="380" y="170" width="80" height="80" as="geometry" />
        </mxCell>
        <mxCell id="uLhDo0Ny1792h5dLZ_3C-2" value="监护人是否四城区户籍" style="rhombus;whiteSpace=wrap;html=1;fillColor=#dae8fc;strokeColor=#6c8ebf;" vertex="1" parent="1">
          <mxGeometry x="570" y="230" width="80" height="80" as="geometry" />
        </mxCell>
        <mxCell id="uLhDo0Ny1792h5dLZ_3C-5" value="监护人是否四城区户籍" style="rhombus;whiteSpace=wrap;html=1;strokeColor=#6c8ebf;fillColor=#dae8fc;" vertex="1" parent="1">
          <mxGeometry x="220" y="170" width="80" height="80" as="geometry" />
        </mxCell>
      </root>
    </mxGraphModel>
  </diagram>
</mxfile>
